<svg width="132" height="24" viewBox="0 0 132 24" fill="none" xmlns="http://www.w3.org/2000/svg">
<g clip-path="url(#clip0_445_1593)">
<mask id="mask0_445_1593" style="mask-type:luminance" maskUnits="userSpaceOnUse" x="0" y="0" width="132" height="23">
<path d="M131.935 0.626465H0.81543V22.6265H131.935V0.626465Z" fill="white"/>
</mask>
<g mask="url(#mask0_445_1593)">
<path d="M52.3115 2.86626C52.3115 2.34578 52.5205 1.84663 52.8925 1.4786C53.2645 1.11057 53.7691 0.903809 54.2952 0.903809C54.8213 0.903809 55.3259 1.11057 55.6979 1.4786C56.0699 1.84663 56.2789 2.34578 56.2789 2.86626C56.2597 3.37405 56.0423 3.85474 55.6724 4.20729C55.3025 4.55984 54.8089 4.75681 54.2952 4.75681C53.7816 4.75681 53.2879 4.55984 52.918 4.20729C52.5481 3.85474 52.3307 3.37405 52.3115 2.86626Z" fill="#273B7D"/>
<path d="M83.6084 15.9542C83.6084 14.865 84.4952 13.9849 85.5879 13.9849C86.1155 13.9849 86.6215 14.1923 86.9945 14.5613C87.3675 14.9304 87.5771 15.4309 87.5771 15.9528C87.5771 16.4748 87.3675 16.9753 86.9945 17.3444C86.6215 17.7134 86.1155 17.9208 85.5879 17.9208C84.4966 17.9208 83.6084 17.0393 83.6084 15.9528" fill="#499FDD"/>
<path d="M19.7555 15.1028C18.0481 15.1028 16.8601 13.7608 16.8601 11.8421C16.8601 9.9247 18.0481 8.58406 19.7569 8.58406C21.4739 8.58406 22.6744 9.9247 22.6744 11.8421C22.6744 13.7908 21.5002 15.1028 19.7555 15.1028ZM19.7555 5.71829C16.1418 5.71829 13.5186 8.29434 13.5186 11.8421C13.5186 15.3911 16.1432 17.9658 19.7555 17.9658C23.3844 17.9658 26.0173 15.3911 26.0173 11.8434C26.0173 8.29434 23.3844 5.71829 19.7569 5.71829H19.7555ZM48.469 12.1496C48.3432 11.9089 48.1842 11.6868 47.9966 11.4895L47.886 11.3761L48.0021 11.2667C48.1679 11.0932 48.3377 10.8882 48.5007 10.6504L51.6917 5.96018H47.8184L45.4216 9.62951C45.2863 9.8263 45.0128 9.9247 44.6025 9.9247H44.0569V2.98781C44.0569 1.60071 43.1825 1.41211 42.239 1.41211H40.6227L40.6268 17.7854H44.0582V12.8739H44.3801C44.771 12.8739 45.0362 12.9189 45.1592 13.1294L47.0517 16.6634C47.5807 17.6228 48.107 17.7854 49.0989 17.7854H51.7277L49.7689 14.5821L48.4704 12.1496H48.469ZM65.1258 5.69096C63.3797 5.69096 62.2663 6.45899 61.6419 7.10812L61.4347 7.31585L61.3601 7.03296C61.1778 6.33736 60.5589 5.95608 59.6292 5.95608H58.0917L58.1014 17.7813H61.5092V12.3313C61.5092 11.7983 61.5783 11.3364 61.722 10.9141C62.1005 9.63634 63.1586 8.84235 64.4806 8.84235C65.5443 8.84235 65.9601 9.39856 65.9601 10.8335V15.9842C65.9601 17.2087 66.5333 17.7813 67.7724 17.7813H69.3942L69.3887 10.2595C69.3887 7.27212 67.9148 5.69232 65.1258 5.69232V5.69096ZM54.3357 5.96018H52.7209L52.7319 15.1042V17.7854H54.4545L54.5153 17.7882L55.3193 17.7854H56.1178V17.7813H56.1232L56.1302 7.75726C56.1302 6.54782 55.5459 5.96154 54.3372 5.96154L54.3357 5.96018ZM33.1397 15.1028C31.4323 15.1028 30.243 13.7608 30.243 11.8421C30.243 9.9247 31.4324 8.58406 33.1412 8.58406C34.8541 8.58406 36.0587 9.9247 36.0587 11.8421C36.0587 13.7908 34.8845 15.1028 33.1412 15.1028H33.1397ZM33.1397 5.71829C29.5233 5.71829 26.8986 8.29434 26.8986 11.8421C26.8986 15.3911 29.5233 17.9658 33.1412 17.9658C36.7645 17.9658 39.4029 15.3911 39.4029 11.8434C39.4029 8.29434 36.7645 5.71829 33.1412 5.71829" fill="#273B7D"/>
<path d="M106.182 15.1032C104.474 15.1032 103.284 13.7612 103.284 11.8425C103.284 9.92516 104.474 8.58452 106.182 8.58452C107.897 8.58452 109.101 9.92516 109.101 11.8425C109.101 13.7913 107.927 15.1032 106.182 15.1032ZM106.182 5.71875C102.565 5.71875 99.9424 8.2948 99.9424 11.8425C99.9424 15.3916 102.565 17.9663 106.182 17.9663C109.807 17.9663 112.444 15.3916 112.444 11.8439C112.444 8.2948 109.805 5.71875 106.182 5.71875Z" fill="#499FDD"/>
<path d="M76.5739 14.5826C74.7104 14.5826 74.0474 12.9755 74.0474 11.4681C74.0474 10.8039 74.2172 8.64063 76.3957 8.64063C77.4773 8.64063 78.9181 8.94675 78.9181 11.5788C78.9181 14.0619 77.6431 14.5826 76.5739 14.5826ZM80.6877 5.92929C80.0412 5.92929 79.5439 6.18484 79.2939 6.65086L79.1999 6.83125L79.0425 6.69459C78.4927 6.22447 77.5064 5.66553 75.9053 5.66553C72.7185 5.66553 70.5732 8.03386 70.5732 11.5556C70.5732 15.0759 72.7931 17.5358 75.9689 17.5358C77.0533 17.5358 77.9111 17.2844 78.5907 16.776L78.8532 16.5806V16.9085C78.8532 18.4883 77.8213 19.3602 75.9495 19.3602C75.0392 19.3602 74.2118 19.1416 73.6564 18.942C72.9354 18.7261 72.5099 18.9052 72.2184 19.6226L71.9477 20.2841L71.565 21.2516L71.8012 21.376C73.0003 22.0046 74.5599 22.3804 75.9689 22.3804C78.8698 22.3804 82.2597 20.9113 82.2597 16.776L82.2721 5.92929H80.6877Z" fill="#273B7D"/>
<path d="M7.06698 14.9678L4.29316 14.9651V11.6852C4.29316 10.9828 4.56806 10.6193 5.17449 10.5346H7.06698C8.41659 10.5346 9.28961 11.3764 9.29099 12.7389C9.28961 14.1383 8.4387 14.9665 7.06698 14.9665V14.9678ZM4.29316 6.11772V5.25403C4.29316 4.49829 4.61642 4.13888 5.32507 4.09241H6.74516C7.96216 4.09241 8.69153 4.81261 8.69153 6.01933C8.69153 6.93768 8.19144 8.01047 6.78934 8.01047H4.29316V6.11772ZM10.6088 9.39211L10.1073 9.11332L10.5453 8.74297C11.055 8.30976 11.9073 7.33537 11.9073 5.65444C11.9073 3.07976 9.89056 1.41797 6.76725 1.41797H2.79711C2.35039 1.43408 1.92708 1.61961 1.61487 1.93611C1.30266 2.25261 1.1255 2.67582 1.12012 3.11802V17.727H6.83765C10.309 17.727 12.5496 15.8575 12.5496 12.9617C12.5496 11.4024 11.8258 10.0699 10.6088 9.39211Z" fill="#273B7D"/>
<path d="M127.664 5.73096C126.961 5.73352 126.267 5.89241 125.634 6.19589C125.001 6.49937 124.445 6.93969 124.007 7.48431L123.761 7.79317L123.567 7.44741C122.935 6.30903 121.849 5.73096 120.339 5.73096C118.755 5.73096 117.692 6.60559 117.199 7.1249L116.876 7.47065L116.751 7.01557C116.572 6.3596 115.982 6.00018 115.09 6.00018H113.657L113.643 17.7803H116.897V12.5804C116.897 12.124 116.955 11.6744 117.069 11.2029C117.38 9.94557 118.234 8.594 119.669 8.72929C120.553 8.81402 120.987 9.49049 120.987 10.797V17.7803H124.263V12.5804C124.263 12.0105 124.317 11.5842 124.447 11.1578C124.71 9.95787 125.602 8.72792 126.986 8.72792C127.989 8.72792 128.359 9.28823 128.359 10.797V16.0584C128.359 17.2474 128.895 17.7803 130.098 17.7803H131.629L131.632 10.2599C131.632 7.25472 130.295 5.73096 127.664 5.73096ZM98.0563 13.6901C98.0466 13.7024 96.6473 15.1619 94.8031 15.1619C93.1234 15.1619 91.4271 14.1424 91.4271 11.867C91.4271 9.90184 92.7421 8.5284 94.6263 8.5284C95.2369 8.5284 95.9332 8.74432 96.0423 9.10921L96.0575 9.1707C96.1271 9.42191 96.2785 9.64338 96.4883 9.80077C96.6981 9.95816 96.9545 10.0427 97.2178 10.0412L98.9998 10.044V8.50243C98.9998 6.46892 96.3848 5.73096 94.6263 5.73096C90.8634 5.73096 88.1338 8.32204 88.1338 11.8916C88.1338 15.4585 90.8331 18.0468 94.5573 18.0468C97.787 18.0468 99.5441 15.9464 99.5607 15.9259L99.6546 15.8111L98.2428 13.4947L98.0563 13.6901Z" fill="#499FDD"/>
</g>
</g>
<defs>
<clipPath id="clip0_445_1593">
<rect width="132" height="23" fill="white" transform="translate(0 0.197754)"/>
</clipPath>
</defs>
</svg>
