<svg width="124" height="17" viewBox="0 0 124 17" fill="none" xmlns="http://www.w3.org/2000/svg">
<g clip-path="url(#clip0_445_1581)">
<mask id="mask0_445_1581" style="mask-type:luminance" maskUnits="userSpaceOnUse" x="0" y="1" width="124" height="16">
<path d="M123.871 1.62646H0V16.6265H123.871V1.62646Z" fill="white"/>
</mask>
<g mask="url(#mask0_445_1581)">
<path d="M80.2256 16.0489H76.8382V2.22461L87.7325 2.23358C87.7325 2.23358 89.7271 2.15918 90.996 3.41274C90.996 3.41274 92.2911 4.49423 92.2911 7.1376V16.0468H88.9125V6.90733C88.9125 6.90733 88.9541 5.97512 88.6365 5.64798C88.6365 5.64798 88.3557 5.29264 87.8218 5.29264H80.2173L80.2244 16.044L80.2256 16.0489ZM94.6455 16.0465V3.10362V2.23493H108.24V5.30709L98.0122 5.3063V7.65508H105.117V10.6216H98.0122V12.9784H108.303V16.0513H94.6375L94.6455 16.0465ZM70.9353 16.0465V3.10362V2.23493H74.3084V16.0513H70.9353V16.0465ZM113.095 16.0465V5.30312H109.911V2.23096H122.576V5.30312H116.471V16.0465H113.097H113.095ZM59.7948 16.0465V5.30312H56.6107V2.23096H69.2757V5.30312H63.1703V16.0465H59.7972H59.7948ZM49.6231 7.64555C50.4473 7.6392 50.9405 7.64635 51.139 7.52549C51.139 7.52549 51.4853 7.33397 51.4893 6.92297L51.4901 6.01935C51.4901 5.60645 51.1398 5.41683 51.1398 5.41683C50.8768 5.2739 50.4311 5.30074 49.373 5.29971H42.8015V7.64532H49.774L49.6231 7.64555ZM51.4407 16.0465V11.3315C51.4407 10.9076 51.0864 10.73 51.0864 10.73C50.9266 10.6308 50.4481 10.6129 49.7437 10.6129H49.9074H42.8015V16.0458H39.4284V3.10282V2.23414H49.9574C51.7758 2.2397 53.0312 2.50713 53.8959 3.3466C54.7455 4.21211 54.8583 5.34441 54.863 6.52278V7.5066C54.874 8.50789 54.3479 9.42104 53.7204 9.95305L53.8465 10.0156C54.1026 10.1396 54.2426 10.3154 54.2426 10.3154C54.7199 10.9248 54.7141 11.4493 54.713 12.094V16.0492H51.4408L51.4407 16.0465ZM0.431275 2.23017V3.09965V16.0426H3.80438V10.6145H14.0237V7.64635H3.80438V5.29915H15.6833V2.22699H0.429688L0.431275 2.23017Z" fill="#231F20"/>
<path d="M121.435 13.6032V14.2375H122.026C122.186 14.2375 122.341 14.1939 122.364 13.9566C122.398 13.642 122.171 13.6032 122.026 13.6032H121.435ZM121.198 13.3948H122.021C122.307 13.3948 122.583 13.4484 122.606 13.8642C122.616 14.1025 122.544 14.1889 122.364 14.3248C122.554 14.4459 122.559 14.4747 122.587 14.7942C122.606 15.0364 122.573 15.0752 122.675 15.2349H122.394L122.355 15.0027C122.316 14.7843 122.423 14.4459 122.041 14.4459H121.435V15.235H121.198V13.3948ZM121.817 12.8866C121.004 12.8866 120.341 13.5496 120.347 14.3683C120.347 15.1814 121.005 15.8444 121.823 15.8405C122.637 15.8405 123.3 15.1814 123.3 14.3635C123.3 13.5496 122.636 12.8866 121.817 12.8866ZM121.823 16.0326C120.899 16.0326 120.152 15.2872 120.152 14.3635C120.148 13.4432 120.899 12.6929 121.823 12.6929C122.743 12.6929 123.494 13.4432 123.494 14.3635C123.494 15.2878 122.743 16.0294 121.823 16.0326Z" fill="#231F20"/>
<path d="M34.7894 16.184C35.8852 15.8117 36.738 14.5498 36.9428 12.9633V12.5048H31.325V16.1844L34.7894 16.184ZM36.9436 5.75816V5.34327C36.7283 3.68769 35.8121 2.38307 34.6441 2.07657H31.3258V5.75776L36.9436 5.75816ZM17.1719 12.5052V12.9597C17.3754 14.5478 18.228 15.812 19.327 16.1844H22.7731V12.5048L17.1719 12.5052ZM19.4707 2.07935C18.3042 2.38601 17.3855 3.69126 17.1719 5.34923V5.76118H22.7731V2.07999L19.4707 2.07935ZM36.9476 7.29305H31.3297V10.9742H36.9476V7.29305ZM24.3064 16.1863H29.802V12.5067H24.3064V16.1863ZM29.802 2.07617H24.3064V5.75737H29.802V2.07617ZM17.1767 10.9695H22.7779V7.28828H17.1767V10.9695Z" fill="#EE2E24"/>
</g>
</g>
<defs>
<clipPath id="clip0_445_1581">
<rect width="124" height="16" fill="white" transform="translate(0 0.697754)"/>
</clipPath>
</defs>
</svg>
