<svg width="64" height="27" viewBox="0 0 64 27" fill="none" xmlns="http://www.w3.org/2000/svg">
<g clip-path="url(#clip0_445_1605)">
<mask id="mask0_445_1605" style="mask-type:luminance" maskUnits="userSpaceOnUse" x="0" y="1" width="64" height="26">
<path d="M63.2565 1.62646H0.935547V26.6265H63.2565V1.62646Z" fill="white"/>
</mask>
<g mask="url(#mask0_445_1605)">
<path d="M0.935547 24.8857H13.0528V26.6203H0.935547V24.8857Z" fill="#1F70C1"/>
<path d="M0.935547 21.5586H13.0528V23.2993H0.935547V21.5586Z" fill="#1F70C1"/>
<path d="M4.39258 18.2378H9.59009V19.9785H4.39258V18.2378Z" fill="#1F70C1"/>
<path d="M4.39258 14.9165H9.59009V16.6573H4.39258V14.9165Z" fill="#1F70C1"/>
<path d="M4.39258 11.5957H9.59009V13.3364H4.39258V11.5957Z" fill="#1F70C1"/>
<path d="M4.39258 8.26807H9.59009V10.0088H4.39258V8.26807Z" fill="#1F70C1"/>
<path d="M13.0528 4.94727H0.935547V6.68802H13.0528V4.94727Z" fill="#1F70C1"/>
<path d="M13.0528 1.62646H0.935547V3.36722H13.0528V1.62646Z" fill="#1F70C1"/>
<path d="M14.7812 23.2993H33.4171C33.7319 22.7623 33.9664 22.1759 34.1084 21.5586H14.7812V23.2993Z" fill="#1F70C1"/>
<path d="M31.9663 14.9165H18.2441V16.6573H33.4169C33.0218 15.9905 32.5341 15.4042 31.9663 14.9165Z" fill="#1F70C1"/>
<path d="M18.2441 11.5957V13.3364H31.9663C32.5465 12.8487 33.0341 12.2623 33.4169 11.5957H18.2441Z" fill="#1F70C1"/>
<path d="M33.4172 4.94727H14.7812V6.68802H34.1084C33.948 6.07073 33.7134 5.48435 33.4172 4.94727Z" fill="#1F70C1"/>
<path d="M27.6887 1.62646H14.7812V3.36722H32.1392C30.9788 2.29311 29.4047 1.62646 27.6887 1.62646Z" fill="#1F70C1"/>
<path d="M23.4354 8.26855H18.2441V10.0093H23.4354V8.26855Z" fill="#1F70C1"/>
<path d="M28.6328 10.0088H34.0649C34.2192 9.45329 34.2994 8.86685 34.2994 8.26807H28.6328V10.0088Z" fill="#1F70C1"/>
<path d="M18.2441 18.2378H23.4354V19.9785H18.2441V18.2378Z" fill="#1F70C1"/>
<path d="M28.6328 18.2378V19.9785H34.2994C34.2994 19.3797 34.2192 18.7933 34.0649 18.2378H28.6328Z" fill="#1F70C1"/>
<path d="M14.7812 26.608L27.6887 26.6265C29.4171 26.6265 30.9788 25.9598 32.1454 24.8857H14.7812V26.608Z" fill="#1F70C1"/>
<path d="M35.5586 24.8857H44.2129V26.6203H35.5586V24.8857Z" fill="#1F70C1"/>
<path d="M35.5586 21.5586H44.2129V23.2993H35.5586V21.5586Z" fill="#1F70C1"/>
<path d="M39.0156 18.2378H44.2131V19.9785H39.0156V18.2378Z" fill="#1F70C1"/>
<path d="M39.0156 14.9165H44.2131V16.6573H39.0156V14.9165Z" fill="#1F70C1"/>
<path d="M46.6204 4.94727H35.5586V6.68802H47.2191L46.6204 4.94727Z" fill="#1F70C1"/>
<path d="M45.4722 1.62646H35.5586V3.36722H46.071L45.4722 1.62646Z" fill="#1F70C1"/>
<path d="M54.5957 24.8857H63.2562V26.6203H54.5957V24.8857Z" fill="#1F70C1"/>
<path d="M54.5957 21.5586H63.2562V23.2992H54.5957V21.5586Z" fill="#1F70C1"/>
<path d="M54.5957 18.2378H59.7932V19.9785H54.5957V18.2378Z" fill="#1F70C1"/>
<path d="M54.5957 14.9165H59.7932V16.6573H54.5957V14.9165Z" fill="#1F70C1"/>
<path d="M54.5958 13.3364H59.7933V11.5957H54.5958H49.8922L49.4045 13.0031L48.9168 11.5957H44.2131H39.0156V13.3364H44.2131V11.7376L44.7625 13.3364H54.0465L54.5958 11.7376V13.3364Z" fill="#1F70C1"/>
<path d="M59.7932 8.26807H51.0401L50.4414 10.0088H59.7932V8.26807Z" fill="#1F70C1"/>
<path d="M53.3429 1.62646L52.7441 3.36722H63.2565V1.62646H53.3429Z" fill="#1F70C1"/>
<path d="M49.4054 26.608L50.0041 24.8857H48.8066L49.4054 26.608Z" fill="#1F70C1"/>
<path d="M48.2556 23.2993H50.5519L51.1692 21.5586H47.6445L48.2556 23.2993Z" fill="#1F70C1"/>
<path d="M47.0896 19.9785H51.7192L52.3303 18.2378H46.4785L47.0896 19.9785Z" fill="#1F70C1"/>
<path d="M45.9289 16.6573H52.8857L53.4783 14.9165H45.3301L45.9289 16.6573Z" fill="#1F70C1"/>
<path d="M39.0156 10.0088H48.3674L47.7687 8.26807H39.0156V10.0088Z" fill="#1F70C1"/>
<path d="M51.5957 6.68802H63.2562V4.94727H52.1883L51.5957 6.68802Z" fill="#1F70C1"/>
</g>
</g>
<defs>
<clipPath id="clip0_445_1605">
<rect width="64" height="26" fill="white" transform="translate(0 0.697754)"/>
</clipPath>
</defs>
</svg>
