<svg width="105" height="28" viewBox="0 0 105 28" fill="none" xmlns="http://www.w3.org/2000/svg">
<g clip-path="url(#clip0_445_1589)">
<path d="M22.7423 16.0064C21.0127 16.0064 19.6737 14.6674 19.6737 12.882C19.6737 11.1523 21.0127 9.81324 22.7423 9.81324C24.4719 9.81324 25.811 11.1523 25.811 12.882C25.811 14.6116 24.4162 16.0064 22.7423 16.0064ZM28.3217 9.70165V7.58148H24.5835C23.9698 7.30251 23.3561 7.24672 22.7423 7.24672C19.5063 7.24672 16.9956 9.70166 16.9956 12.9378C16.9956 16.1738 19.5063 18.5729 22.6865 18.5729C25.8668 18.5729 28.3775 16.118 28.3775 12.9378C28.3775 11.8219 28.0428 10.8176 27.4848 10.0364L28.3217 9.70165ZM10.3003 16.0064C8.57066 16.0064 7.23161 14.6674 7.23161 12.882C7.23161 11.1523 8.57066 9.81324 10.3003 9.81324C12.0299 9.81324 13.3689 11.1523 13.3689 12.882C13.3689 14.6116 12.0857 16.0064 10.3003 16.0064ZM10.3003 7.24672C7.06423 7.24672 4.60929 9.70165 4.60929 12.882C4.60929 16.0622 7.12002 18.5729 10.3003 18.5729C13.4805 18.5729 15.9913 16.118 15.9913 12.9378C15.9913 9.75745 13.5363 7.24672 10.3003 7.24672ZM0.871094 18.294H3.49341V3.11796H0.871094V18.294ZM29.4934 18.294H32.1157V7.58148H29.4934V18.294ZM22.7423 22.0322C21.0127 22.0322 19.6737 20.6931 19.6737 18.9635H16.9956C16.9956 22.1996 19.5063 24.5987 22.6865 24.5987C25.8668 24.5987 28.4333 22.1438 28.4333 18.9635H25.811C25.7552 20.7489 24.4162 22.0322 22.7423 22.0322ZM41.9913 11.8219C42.3818 10.427 43.3861 9.64586 44.781 9.64586C46.1758 9.64586 47.2359 10.427 47.5149 11.8219H41.9913ZM44.8925 7.24672C41.6565 7.24672 39.2574 9.70166 39.2574 12.9378C39.2574 16.1738 41.4333 18.4614 44.8925 18.4614C46.7337 18.4614 48.4634 17.736 49.7466 16.4528L47.9054 14.6116C47.0127 15.5043 46.0642 16.0064 44.9483 16.0064C43.4419 16.0064 42.3818 15.1137 42.0471 13.8305H50.3604V13.2167C50.3604 9.70165 48.0728 7.24672 44.8925 7.24672ZM68.4376 7.24672C67.0985 7.24672 65.9827 7.69307 65.2016 8.58577V3.06217H62.5792V18.2382H65.2016V12.4356C65.2016 10.8734 66.15 9.86903 67.7681 9.86903C69.2745 9.86903 70.1114 10.8176 70.1114 12.4356V18.2382H72.7337V11.9893C72.8453 9.03213 70.9483 7.24672 68.4376 7.24672ZM56.8882 9.86903C58.0041 9.86903 58.8968 10.427 59.6222 11.2639L61.4634 9.42269C60.4033 8.08363 58.841 7.30251 56.8882 7.30251C53.6522 7.30251 51.1973 9.75745 51.1973 12.9378C51.1973 16.118 53.708 18.5729 56.8882 18.5729C58.7295 18.5729 60.4033 17.6802 61.4634 16.4528L59.6222 14.6116C58.8968 15.3927 57.9483 16.0064 56.8882 16.0064C55.1586 16.0064 53.9312 14.6674 53.9312 12.9378C53.8196 11.2081 55.2144 9.86903 56.8882 9.86903ZM37.4719 4.28964H34.8496V7.58148H33.4548V9.92483H34.8496V18.2382H37.4719V9.92483H38.9784V7.58148H37.4719V4.28964ZM30.8883 2.7832C29.9398 2.7832 29.1586 3.56432 29.1586 4.6244C29.1586 5.5729 29.9398 6.35401 30.8883 6.35401C31.9483 6.35401 32.7295 5.5729 32.7295 4.6244C32.6179 3.56432 31.8368 2.7832 30.8883 2.7832Z" fill="black"/>
<path fill-rule="evenodd" clip-rule="evenodd" d="M90.4103 0.626465V6.03849C86.1699 6.03849 82.8223 9.38612 82.8223 13.6265C82.8223 17.7552 86.1699 21.2145 90.4103 21.2145V26.6265C83.2129 26.6265 77.3545 20.8239 77.3545 13.6265C77.3545 6.42904 83.2129 0.626465 90.4103 0.626465Z" fill="#00B8FD"/>
<path fill-rule="evenodd" clip-rule="evenodd" d="M104.815 8.6416H93.1543V13.9421H99.459V20.2468H104.815V8.6416Z" fill="#00B8FD"/>
</g>
<defs>
<clipPath id="clip0_445_1589">
<rect width="105" height="27" fill="white" transform="translate(0 0.197754)"/>
</clipPath>
</defs>
</svg>
