<svg width="123" height="30" viewBox="0 0 123 30" fill="none" xmlns="http://www.w3.org/2000/svg">
<g clip-path="url(#clip0_430_1499)">
<path fill-rule="evenodd" clip-rule="evenodd" d="M13.3954 1.13439L14.7695 15.0646L10.7089 1.66896C9.81616 1.93144 8.97664 2.28953 8.1713 2.71889L14.7695 15.0646L5.8883 4.24056C5.18017 4.81761 4.53206 5.47369 3.9454 6.18347L14.7694 15.0647L2.42372 8.45839C1.99434 9.26373 1.63622 10.1126 1.37379 10.996L14.7695 15.0647L0.839224 13.6905C0.795431 14.1458 0.769531 14.6011 0.769531 15.0647C0.769531 15.5283 0.795433 15.9835 0.839224 16.4389L14.7695 15.0647L1.37379 19.1334C1.63628 20.0165 1.99436 20.8657 2.42372 21.671L14.7694 15.0647L3.9454 23.9459C4.53206 24.6541 5.17853 25.3104 5.8883 25.8888L14.7695 15.0648L8.1713 27.4105C8.97664 27.8399 9.81595 28.198 10.7089 28.4604L14.7695 15.0648L13.3954 28.995C13.8507 29.0388 14.3059 29.0647 14.7695 29.0647C15.2331 29.0647 15.6883 29.0388 16.1437 28.995L14.7695 15.0648L18.8302 28.4604C19.7229 28.1979 20.5624 27.8399 21.3678 27.4105L14.7695 15.0648L23.6508 25.8888C24.3589 25.3118 25.007 24.6557 25.5937 23.9459L14.7697 15.0647L27.1153 21.671C27.5447 20.8657 27.9028 20.0168 28.1653 19.1334L14.7696 15.0647L28.6998 16.4389C28.7436 15.9836 28.7695 15.5283 28.7695 15.0647C28.7695 14.6011 28.7436 14.1459 28.6998 13.6905L14.7696 15.0647L28.1653 10.996C27.9028 10.1129 27.5447 9.26373 27.1153 8.45839L14.7697 15.0647L25.5937 6.18347C25.007 5.47534 24.3605 4.81895 23.6508 4.24056L14.7695 15.0646L21.3678 2.71889C20.5624 2.28951 19.7135 1.93139 18.8302 1.66896L14.7695 15.0646L16.1437 1.13439C15.6884 1.0906 15.2331 1.0647 14.7695 1.0647C14.3059 1.0647 13.8507 1.0906 13.3954 1.13439Z" fill="#1E2939"/>
</g>
<path d="M36.1743 24.5V5.45258H38.8294V24.5H36.1743ZM37.0401 24.5V22.1912H47.7182V24.5H37.0401ZM54.4466 24.8752C52.792 24.8752 51.5414 24.298 50.6948 23.1436C49.8483 21.9892 49.425 20.2672 49.425 17.9777V9.57952H52.0801V17.7468C52.0801 19.363 52.3302 20.5655 52.8304 21.3543C53.3307 22.1431 54.1195 22.5375 55.1969 22.5375C55.7934 22.5375 56.3225 22.3932 56.7842 22.1046C57.2652 21.816 57.6885 21.4024 58.054 20.8637C58.4196 20.325 58.7178 19.69 58.9487 18.9589C59.1796 18.2086 59.3335 17.4005 59.4105 16.5347V9.57952H62.0367V18.2663V24.5H59.6991L59.9299 19.7093H59.497C59.2469 20.9022 58.891 21.8834 58.4292 22.653C57.9867 23.4033 57.4288 23.9613 56.7554 24.3268C56.082 24.6924 55.3124 24.8752 54.4466 24.8752ZM66.0169 24.5V15.2649V9.57952H68.3545L68.0948 14.3125H68.5854C68.8355 13.1774 69.1722 12.2346 69.5955 11.4843C70.0187 10.7147 70.5382 10.1471 71.1539 9.78154C71.7888 9.39674 72.5103 9.20435 73.3184 9.20435C74.2804 9.20435 75.0692 9.44484 75.6849 9.92584C76.3005 10.3876 76.7527 10.9936 77.0413 11.744C77.3491 12.4944 77.503 13.3217 77.503 14.2259H77.9648C78.1764 13.1485 78.5035 12.2346 78.946 11.4843C79.3885 10.7339 79.9369 10.1663 80.591 9.78154C81.2452 9.39674 81.9955 9.20435 82.8421 9.20435C83.6117 9.20435 84.2851 9.35827 84.8623 9.6661C85.4394 9.97394 85.9301 10.4357 86.3341 11.0514C86.7381 11.6478 87.0363 12.3885 87.2287 13.2736C87.4211 14.1586 87.5173 15.1783 87.5173 16.3327V24.5H84.8911V16.679C84.8911 15.5439 84.7853 14.6011 84.5737 13.8508C84.362 13.0812 84.0446 12.5136 83.6213 12.148C83.2172 11.7632 82.6978 11.5708 82.0629 11.5708C81.351 11.5708 80.7065 11.821 80.1293 12.3212C79.5713 12.8022 79.1095 13.4852 78.744 14.3702C78.3977 15.236 78.1668 16.2269 78.0514 17.3428V24.5H75.4828V16.9388C75.4828 15.7459 75.377 14.755 75.1654 13.9662C74.9537 13.1774 74.6363 12.5809 74.213 12.1769C73.809 11.7729 73.2799 11.5708 72.6257 11.5708C71.8561 11.5708 71.1924 11.8402 70.6344 12.3789C70.0765 12.8984 69.6243 13.6006 69.278 14.4857C68.9509 15.3707 68.7393 16.3616 68.6431 17.4582V24.5H66.0169ZM97.6624 24.8752C96.4888 24.8752 95.4499 24.702 94.5456 24.3557C93.6606 23.9901 92.9102 23.4707 92.2945 22.7973C91.6789 22.1239 91.2171 21.3254 90.9093 20.4019C90.6014 19.4784 90.4475 18.4395 90.4475 17.2851C90.4475 16.1114 90.6014 15.034 90.9093 14.0528C91.2171 13.0715 91.6692 12.2154 92.2657 11.4843C92.8621 10.7532 93.5932 10.1952 94.459 9.8104C95.3248 9.40636 96.3157 9.20435 97.4316 9.20435C98.4128 9.20435 99.3074 9.36788 100.116 9.69496C100.924 10.022 101.607 10.5319 102.165 11.2245C102.742 11.8979 103.175 12.7541 103.463 13.793C103.752 14.8128 103.867 16.0152 103.81 17.4005L92.0925 17.4871V15.6978L102.222 15.6112L101.328 16.8233C101.424 15.6112 101.308 14.6107 100.981 13.8219C100.654 13.0331 100.183 12.4366 99.5672 12.0326C98.9707 11.6286 98.2589 11.4265 97.4316 11.4265C96.5465 11.4265 95.7673 11.6574 95.0939 12.1192C94.4205 12.5809 93.9011 13.2447 93.5355 14.1105C93.1892 14.9763 93.016 16.0249 93.016 17.2562C93.016 19.0263 93.4104 20.3827 94.1993 21.3254C94.9881 22.2489 96.1617 22.7107 97.7202 22.7107C98.3166 22.7107 98.8361 22.6434 99.2786 22.5087C99.7403 22.3548 100.125 22.1527 100.433 21.9026C100.76 21.6333 101.02 21.3254 101.212 20.9791C101.424 20.6328 101.587 20.2576 101.703 19.8536L104.012 20.4019C103.838 21.0946 103.569 21.7198 103.204 22.2778C102.857 22.8165 102.415 23.2783 101.876 23.6631C101.356 24.0479 100.75 24.3461 100.058 24.5577C99.3652 24.7694 98.5667 24.8752 97.6624 24.8752ZM106.968 24.5V15.236V9.57952H109.335L109.075 14.3125H109.566C109.835 13.1389 110.191 12.1769 110.634 11.4265C111.095 10.6762 111.672 10.1182 112.365 9.75268C113.058 9.38712 113.866 9.20435 114.789 9.20435C116.444 9.20435 117.695 9.80078 118.541 10.9936C119.407 12.1673 119.84 13.9277 119.84 16.275V24.5H117.185V16.5059C117.185 14.8128 116.915 13.5622 116.377 12.7541C115.857 11.946 115.088 11.542 114.068 11.542C113.144 11.542 112.355 11.8306 111.701 12.4078C111.066 12.985 110.566 13.7449 110.201 14.6877C109.835 15.6304 109.633 16.6502 109.595 17.7468V24.5H106.968Z" fill="#1E2939"/>
<defs>
<clipPath id="clip0_430_1499">
<rect width="28" height="28" fill="white" transform="translate(0.692383 1)"/>
</clipPath>
</defs>
</svg>
