<svg width="90" height="26" viewBox="0 0 90 26" fill="none" xmlns="http://www.w3.org/2000/svg">
<g clip-path="url(#clip0_445_1660)">
<mask id="mask0_445_1660" style="mask-type:luminance" maskUnits="userSpaceOnUse" x="0" y="0" width="90" height="25">
<path d="M89.3906 0.626465H0.585938V24.6265H89.3906V0.626465Z" fill="white"/>
</mask>
<g mask="url(#mask0_445_1660)">
<path d="M12.7969 23.0795C11.461 23.3141 10.1016 23.3844 8.69536 23.5717L4.40619 11.0093V24.1109C3.07031 24.2515 1.85158 24.439 0.585938 24.6265V0.626465H4.14854L9.02343 14.2439V0.626465H12.7969V23.0795ZM20.1797 9.41553C21.6329 9.41553 23.8595 9.3452 25.1954 9.3452V13.0951C23.5312 13.0951 21.586 13.0951 20.1797 13.1655V18.7437C22.3829 18.6031 24.586 18.4154 26.8125 18.3451V21.9543L16.4296 22.7747V0.626465H26.8125V4.37647H20.1797V9.41553ZM40.7578 4.37656H36.8672V21.6265C35.6016 21.6265 34.3359 21.6265 33.1174 21.6733V4.37656H29.2268V0.626465H40.758L40.7578 4.37656ZM46.8515 9.15779H51.9844V12.9077H46.8515V21.4156H43.1716V0.626465H53.6484V4.37647H46.8515V9.15779ZM59.7421 18.1343C61.875 18.181 64.0311 18.3454 66.1172 18.4623V22.1655C62.7657 21.9544 59.4141 21.7438 55.9922 21.6733V0.626465H59.7421V18.1343ZM69.2812 22.4233C70.4765 22.4938 71.7421 22.5641 72.9609 22.7045V0.626465H69.2812V22.4233ZM89.3907 0.626465L84.6328 12.0406L89.3907 24.6265C87.9843 24.439 86.5781 24.1811 85.1718 23.9467L82.4766 17.0094L79.7347 23.3844C78.375 23.1498 77.0625 23.0795 75.7034 22.892L80.5315 11.8998L76.172 0.626465H80.203L82.664 6.93117L85.2891 0.626465H89.3907Z" fill="#D81F26"/>
</g>
</g>
<defs>
<clipPath id="clip0_445_1660">
<rect width="90" height="25" fill="white" transform="translate(0 0.197754)"/>
</clipPath>
</defs>
</svg>
