<svg width="108" height="34" viewBox="0 0 108 34" fill="none" xmlns="http://www.w3.org/2000/svg">
<g clip-path="url(#clip0_445_1654)">
<mask id="mask0_445_1654" style="mask-type:luminance" maskUnits="userSpaceOnUse" x="0" y="0" width="108" height="33">
<path d="M107.586 0.626465H0.892578V32.6265H107.586V0.626465Z" fill="white"/>
</mask>
<g mask="url(#mask0_445_1654)">
<path d="M16.8924 0.626465C8.05616 0.626465 0.892578 7.78986 0.892578 16.6262C0.892578 25.4634 8.05616 32.6265 16.8924 32.6265C25.7291 32.6265 32.8923 25.4634 32.8923 16.6262C32.8923 7.79043 25.7297 0.626465 16.8924 0.626465ZM24.2299 23.7026C23.9425 24.174 23.3285 24.3217 22.8586 24.0345C19.1015 21.7382 14.3723 21.2194 8.803 22.4917C8.26632 22.6147 7.73135 22.2783 7.60908 21.7418C7.48623 21.2051 7.82115 20.6701 8.35917 20.5479C14.4539 19.1545 19.6819 19.7542 23.8992 22.3312C24.3692 22.6197 24.5184 23.2326 24.2299 23.7026ZM26.1882 19.3467C25.8264 19.9338 25.0587 20.118 24.4723 19.7574C20.1725 17.1143 13.6159 16.3488 8.52903 17.8929C7.8693 18.0922 7.17251 17.7204 6.97227 17.0618C6.77357 16.4021 7.14557 15.7066 7.80415 15.506C13.6148 13.7429 20.8384 14.5969 25.7773 17.6319C26.3638 17.993 26.5493 18.7609 26.1882 19.3467ZM26.3564 14.8102C21.1989 11.7473 12.6918 11.4657 7.76841 12.9599C6.97781 13.1997 6.14173 12.7534 5.90214 11.9628C5.66255 11.1718 6.10849 10.3363 6.89966 10.0959C12.5514 8.38023 21.9467 8.71172 27.8837 12.2362C28.5948 12.6582 28.8281 13.5767 28.4066 14.2868C27.9863 14.998 27.0652 15.2324 26.3564 14.8102ZM44.423 15.3971C41.6604 14.7383 41.1686 14.276 41.1686 13.3044C41.1686 12.3866 42.0328 11.7689 43.3179 11.7689C44.5636 11.7689 45.7988 12.2379 47.0938 13.2035C47.133 13.2328 47.1821 13.2444 47.2304 13.2368C47.2787 13.2295 47.3215 13.203 47.3498 13.163L48.6987 11.2616C48.7541 11.1833 48.739 11.0753 48.6643 11.0155C47.123 9.77879 45.3874 9.17752 43.3588 9.17752C40.376 9.17752 38.2925 10.9676 38.2925 13.5287C38.2925 16.2752 40.0897 17.2477 43.1956 17.9984C45.8391 18.6073 46.2853 19.1174 46.2853 20.0293C46.2853 21.0398 45.3831 21.668 43.9312 21.668C42.3187 21.668 41.0034 21.1249 39.532 19.8507C39.4956 19.8192 39.4455 19.8048 39.3993 19.8075C39.3505 19.8115 39.306 19.8341 39.2751 19.8713L37.7627 21.6713C37.6992 21.746 37.7072 21.8576 37.7806 21.9222C39.4925 23.4504 41.598 24.2577 43.8701 24.2577C47.0843 24.2577 49.1613 22.5015 49.1613 19.7833C49.167 17.4886 47.7933 16.2181 44.4287 15.3996L44.423 15.3971ZM56.433 12.6726C55.0398 12.6726 53.897 13.2213 52.9547 14.3457V13.0801C52.9547 12.9802 52.8737 12.8988 52.774 12.8988H50.3003C50.2004 12.8988 50.1196 12.9802 50.1196 13.0801V27.1425C50.1196 27.2424 50.2004 27.3238 50.3003 27.3238H52.774C52.8737 27.3238 52.9547 27.2424 52.9547 27.1425V22.7036C53.8972 23.7613 55.0402 24.2781 56.433 24.2781C59.0216 24.2781 61.6422 22.2854 61.6422 18.476C61.6461 14.6657 59.0247 12.6724 56.4358 12.6724L56.433 12.6726ZM58.7658 18.476C58.7658 20.4158 57.5709 21.7695 55.86 21.7695C54.1685 21.7695 52.8926 20.3543 52.8926 18.476C52.8926 16.5979 54.1685 15.1825 55.86 15.1825C57.5432 15.1823 58.7658 16.5673 58.7658 18.476ZM68.3589 12.6726C65.0251 12.6726 62.4133 15.2397 62.4133 18.5175C62.4133 21.7596 65.0072 24.2997 68.318 24.2997C71.6637 24.2997 74.2835 21.7412 74.2835 18.476C74.2835 15.2221 71.6815 12.6726 68.3589 12.6726ZM68.3589 21.7888C66.5857 21.7888 65.2488 20.3641 65.2488 18.4751C65.2488 16.578 66.5395 15.2014 68.318 15.2014C70.1027 15.2014 71.4485 16.6262 71.4485 18.5165C71.4485 20.4132 70.1491 21.7888 68.3589 21.7888ZM81.4026 12.8988H78.6805V10.1158C78.6805 10.0161 78.5999 9.9347 78.5 9.9347H76.0267C75.9266 9.9347 75.8454 10.0161 75.8454 10.1158V12.8988H74.6561C74.5565 12.8988 74.4759 12.9802 74.4759 13.0801V15.206C74.4759 15.3058 74.5565 15.3873 74.6561 15.3873H75.8454V20.8881C75.8454 23.1111 76.9518 24.2382 79.1339 24.2382C80.0212 24.2382 80.7573 24.055 81.4511 23.6616C81.5074 23.63 81.5424 23.5693 81.5424 23.5047V21.4802C81.5424 21.4178 81.5099 21.3587 81.4564 21.3261C81.4026 21.2922 81.3355 21.2905 81.2803 21.3178C80.8038 21.5576 80.3431 21.6682 79.8282 21.6682C79.0346 21.6682 78.6805 21.3079 78.6805 20.5003V15.3883H81.4026C81.5025 15.3883 81.5829 15.3069 81.5829 15.207V13.0813C81.5867 12.9813 81.5065 12.9 81.4052 12.9L81.4026 12.8988ZM90.8868 12.9097V12.5679C90.8868 11.5623 91.2723 11.1139 92.1371 11.1139C92.6527 11.1139 93.067 11.2163 93.5308 11.3711C93.588 11.389 93.6476 11.3801 93.694 11.3459C93.7418 11.3116 93.7687 11.2568 93.7687 11.1987V9.11428C93.7687 9.0346 93.7175 8.9641 93.6407 8.9406C93.1507 8.79481 92.5237 8.64522 91.5847 8.64522C89.3 8.64522 88.0923 9.93182 88.0923 12.3646V12.8881H86.9039C86.8042 12.8881 86.7224 12.9695 86.7224 13.0692V15.206C86.7224 15.3058 86.8042 15.3873 86.9039 15.3873H88.0923V23.8721C88.0923 23.972 88.173 24.0534 88.2727 24.0534H90.7463C90.8463 24.0534 90.9277 23.972 90.9277 23.8721V15.3879H93.2372L96.775 23.8706C96.3734 24.7619 95.9785 24.9392 95.4393 24.9392C95.0035 24.9392 94.5446 24.8091 94.0754 24.5523C94.0312 24.528 93.9789 24.524 93.9313 24.5387C93.8841 24.5553 93.8444 24.5905 93.8243 24.6363L92.9859 26.4757C92.946 26.5626 92.9802 26.6646 93.0639 26.7097C93.9391 27.1837 94.7292 27.3861 95.7057 27.3861C97.5322 27.3861 98.5418 26.5353 99.4317 24.2464L103.723 13.1573C103.744 13.1015 103.738 13.0384 103.704 12.989C103.67 12.9399 103.615 12.9103 103.555 12.9103H100.98C100.903 12.9103 100.834 12.9593 100.808 13.0318L98.1707 20.5668L95.2813 13.0268C95.255 12.9567 95.1873 12.9102 95.1125 12.9102L90.8868 12.9097ZM85.3881 12.8988H82.9144C82.8145 12.8988 82.7331 12.9802 82.7331 13.0801V23.8721C82.7331 23.972 82.8145 24.0534 82.9144 24.0534H85.3881C85.4878 24.0534 85.5694 23.972 85.5694 23.8721V13.0809C85.5694 13.057 85.5648 13.0334 85.5557 13.0114C85.5465 12.9893 85.5332 12.9693 85.5163 12.9525C85.4994 12.9356 85.4794 12.9223 85.4574 12.9132C85.4353 12.9041 85.4119 12.8987 85.3881 12.8988ZM84.1653 7.98494C83.1853 7.98494 82.3901 8.7782 82.3901 9.75816C82.3901 10.7387 83.1855 11.5329 84.1653 11.5329C85.1449 11.5329 85.9393 10.7387 85.9393 9.75816C85.9393 8.7784 85.1435 7.98494 84.1653 7.98494ZM105.835 16.3686C104.856 16.3686 104.094 15.5824 104.094 14.6277C104.094 13.673 104.866 12.8778 105.844 12.8778C106.823 12.8778 107.585 13.6638 107.585 14.6177C107.585 15.5725 106.813 16.3686 105.835 16.3686ZM105.845 13.0509C104.953 13.0509 104.278 13.7597 104.278 14.6277C104.278 15.4953 104.948 16.1946 105.836 16.1946C106.727 16.1946 107.403 15.4863 107.403 14.6177C107.403 13.7502 106.732 13.0509 105.845 13.0509ZM106.231 14.7968L106.723 15.4861H106.308L105.865 14.8537H105.483V15.4861H105.136V13.6588H105.951C106.375 13.6588 106.654 13.8761 106.654 14.2418C106.656 14.5413 106.481 14.7244 106.231 14.7968ZM105.936 13.9724H105.483V14.5503H105.936C106.163 14.5503 106.298 14.4397 106.298 14.2611C106.298 14.0731 106.161 13.9724 105.936 13.9724Z" fill="#2EBD59"/>
</g>
</g>
<defs>
<clipPath id="clip0_445_1654">
<rect width="108" height="33" fill="white" transform="translate(0 0.197754)"/>
</clipPath>
</defs>
</svg>
