<svg width="137" height="34" viewBox="0 0 137 34" fill="none" xmlns="http://www.w3.org/2000/svg">
<path d="M100.14 8.08055C100.14 8.30244 100.098 8.52218 100.015 8.72721C99.9326 8.93223 99.8113 9.11854 99.6584 9.27547C99.5055 9.4324 99.324 9.5569 99.1242 9.64184C98.9244 9.72677 98.7103 9.77048 98.494 9.77048C98.2778 9.77048 98.0636 9.72677 97.8638 9.64184C97.664 9.5569 97.4825 9.4324 97.3296 9.27547C97.1768 9.11854 97.0555 8.93223 96.9728 8.72721C96.8901 8.52218 96.8476 8.30244 96.8477 8.08055C96.8476 7.85866 96.8901 7.63894 96.9728 7.43391C97.0555 7.22889 97.1768 7.04258 97.3296 6.88565C97.4825 6.72871 97.664 6.60422 97.8638 6.51928C98.0636 6.43434 98.2778 6.39062 98.494 6.39062C98.7103 6.39062 98.9244 6.43434 99.1242 6.51928C99.324 6.60422 99.5055 6.72871 99.6584 6.88565C99.8113 7.04258 99.9326 7.22889 100.015 7.43391C100.098 7.63894 100.14 7.85866 100.14 8.08055Z" fill="#999B9E"/>
<path d="M129.417 15.4995H125.227V19.7758H129.417V15.4995Z" fill="#999B9E"/>
<path d="M46.3095 15.4995H42.1191V19.7758H46.3095V15.4995Z" fill="#999B9E"/>
<path d="M33.7392 15.4995H29.5488V19.7758H33.7392V15.4995Z" fill="#999B9E"/>
<path d="M21.3623 15.4995H17.1719V19.7758H21.3623V15.4995Z" fill="#999B9E"/>
<path d="M8.542 15.4995H4.35156V19.7758H8.542V15.4995Z" fill="#999B9E"/>
<path d="M14.4166 6.96401H14.9138C18.125 6.96401 19.6217 8.68186 20.2471 13.2631L21.2415 13.2191L21.1088 5.95068H4.76846L4.60742 13.2191L5.56429 13.2631C5.73002 11.5452 5.92878 10.6201 6.36013 9.69494C7.12267 7.97682 8.71408 6.96401 10.67 6.96401H11.3662V22.7777C11.3662 24.4516 11.2668 24.9803 10.8693 25.3768C10.5376 25.6851 9.87441 25.8172 9.11161 25.8172H8.34907V26.8743H17.4337V25.8172H16.6665C15.9086 25.8172 15.2408 25.6848 14.914 25.3768C14.5163 24.9803 14.4169 24.4514 14.4169 22.7777L14.4166 6.96401Z" fill="#ED008C"/>
<path d="M57.6393 26.8745L62.9336 8.40133V22.8979C62.9336 24.4799 62.8436 25.0359 62.4846 25.4207C62.2151 25.7199 61.5904 25.8484 60.8979 25.8484H60.6286V26.8745H68.1122V25.8484H67.7227C67.0343 25.8484 66.4058 25.7201 66.1365 25.4207C65.7769 25.0359 65.6872 24.4799 65.6872 22.8979V10.5396C65.6872 8.9573 65.7769 8.35866 66.1365 7.97388C66.4357 7.71736 67.0343 7.54617 67.7227 7.54617H68.1122V6.5625H62.3051L57.9346 21.4865L53.6583 6.5625H47.8811V7.54617H48.4197C50.0064 7.54617 50.3056 7.88829 50.3056 9.94097V21.7003C50.3056 23.5819 50.2158 24.3517 49.9463 24.9076C49.6471 25.4636 49.0141 25.8484 48.3598 25.8484H47.8809V26.8745H54.047V25.8484H53.6581C52.8799 25.8484 52.2511 25.549 51.8876 24.9503C51.5328 24.3517 51.443 23.7957 51.443 21.7003V8.40159L56.7069 26.8747L57.6393 26.8745Z" fill="#999B9E"/>
<path d="M74.5464 12.4209C70.8347 12.4209 68.4102 15.3287 68.4102 19.9045C68.4102 24.309 70.8347 27.3025 74.4528 27.3025C78.1041 27.3025 80.5289 24.309 80.5289 19.8618C80.5289 15.457 78.1042 12.4209 74.5464 12.4209ZM74.4268 13.4043C75.5002 13.4043 76.4279 14.0885 76.9368 15.2432C77.4158 16.3122 77.6252 17.7662 77.6252 19.8616C77.6252 24.1803 76.5775 26.3183 74.4525 26.3183C72.3314 26.3183 71.3092 24.18 71.3092 19.8186C71.3092 17.7659 71.5228 16.3122 72.0018 15.2432C72.4768 14.1315 73.4389 13.4043 74.4268 13.4043Z" fill="#999B9E"/>
<path d="M85.5028 6.34863L81.252 6.56248V7.50324H81.4573C82.7147 7.50324 82.9884 7.93094 82.9884 9.9407V23.8384C82.9884 25.6343 82.9285 26.1049 82.6892 26.8745H83.677C84.4208 25.6343 84.6047 25.4207 84.9042 25.4207C85.0496 25.4207 85.1948 25.4633 85.4089 25.6772C86.8796 26.8745 87.5082 27.131 88.8553 27.131C92.0836 27.131 94.4186 24.0093 94.4186 19.5621C94.4186 15.3714 92.259 12.5491 89.0306 12.5491C87.3544 12.5491 86.1314 13.3616 85.5028 14.8154V6.34863ZM88.6073 13.6181C90.5276 13.6181 91.5152 15.6708 91.5152 19.6903C91.5152 23.9237 90.4974 26.1046 88.5517 26.1046C86.3965 26.1046 85.263 23.8808 85.263 19.8186C85.263 17.7659 85.5327 16.355 86.1613 15.2858C86.7256 14.2597 87.6879 13.6181 88.6073 13.6181Z" fill="#999B9E"/>
<path d="M99.9549 12.6348L95.5889 12.8913V13.832H95.9182C97.1709 13.832 97.4407 14.2597 97.4407 16.2268V23.4536C97.4407 25.421 97.1712 25.8914 95.9182 25.8914H95.4434V26.8745H101.961V25.8914H101.49C100.229 25.8914 99.9552 25.4634 99.9552 23.4536L99.9549 12.6348Z" fill="#999B9E"/>
<path d="M107.531 6.34863L103.165 6.56248V7.50324H103.49C104.748 7.50324 105.017 7.93094 105.017 9.9407V23.4533C105.017 25.4633 104.748 25.8911 103.49 25.8911H103.016V26.8742H109.537V25.8911H109.058C107.796 25.8911 107.531 25.4631 107.531 23.4533V6.34863Z" fill="#999B9E"/>
<path d="M121.446 19.776C121.3 15.2431 119.145 12.4209 115.887 12.4209C112.739 12.4209 110.469 15.4997 110.469 19.776C110.469 24.3514 112.709 27.3022 116.182 27.3022C118.427 27.3022 119.983 26.1047 121.27 23.4534L120.373 22.983C119.325 25.2066 118.277 26.1047 116.661 26.1047C114.296 26.1047 113.283 24.2234 113.252 19.776H121.446ZM113.282 18.7067C113.308 15.4997 114.351 13.4899 116.032 13.4899C117.708 13.4899 118.696 15.457 118.666 18.7067H113.282Z" fill="#999B9E"/>
<path d="M130.988 12.0723C131.241 12.0723 131.488 12.1371 131.729 12.2669C131.97 12.3967 132.157 12.5824 132.292 12.8239C132.426 13.0653 132.493 13.3171 132.493 13.5794C132.493 13.839 132.427 14.0885 132.294 14.3279C132.162 14.5675 131.976 14.7535 131.738 14.8859C131.499 15.0183 131.249 15.0847 130.988 15.0847C130.727 15.0847 130.477 15.0186 130.238 14.8859C129.999 14.7535 129.813 14.5678 129.68 14.3279C129.547 14.0885 129.48 13.839 129.48 13.5794C129.48 13.3171 129.548 13.0653 129.683 12.8239C129.818 12.5824 130.006 12.3964 130.247 12.2669C130.489 12.1371 130.735 12.0723 130.988 12.0723ZM130.988 12.3231C130.777 12.3231 130.571 12.3772 130.371 12.4857C130.171 12.5942 130.014 12.7487 129.901 12.9501C129.788 13.1514 129.732 13.3614 129.732 13.5791C129.732 13.7958 129.787 14.0035 129.899 14.2022C130.009 14.401 130.165 14.5558 130.364 14.6669C130.564 14.778 130.772 14.8334 130.988 14.8334C131.205 14.8334 131.413 14.778 131.612 14.6669C131.812 14.556 131.966 14.4012 132.077 14.2022C132.187 14.0035 132.242 13.7958 132.242 13.5791C132.242 13.3614 132.186 13.1514 132.074 12.9501C131.961 12.7489 131.805 12.5942 131.604 12.4857C131.404 12.3772 131.198 12.3231 130.988 12.3231ZM130.327 14.4103V12.7895H130.885C131.076 12.7895 131.214 12.8046 131.299 12.8345C131.385 12.8645 131.452 12.9168 131.503 12.9914C131.554 13.0658 131.579 13.1452 131.579 13.229C131.579 13.3473 131.537 13.4506 131.452 13.5383C131.367 13.626 131.255 13.6754 131.115 13.6861C131.172 13.71 131.218 13.7386 131.252 13.7719C131.318 13.8357 131.398 13.9428 131.492 14.0932L131.69 14.4106H131.369L131.225 14.1549C131.112 13.9548 131.021 13.8294 130.953 13.7784C130.905 13.7407 130.835 13.722 130.743 13.722H130.589V14.4106L130.327 14.4103ZM130.589 13.4993H130.908C131.06 13.4993 131.164 13.4766 131.22 13.4311C131.275 13.3856 131.303 13.3255 131.303 13.2505C131.303 13.2024 131.289 13.1592 131.263 13.1212C131.236 13.0833 131.199 13.0546 131.151 13.0359C131.104 13.0172 131.016 13.0081 130.888 13.0081H130.589V13.4993Z" fill="#999B9E"/>
</svg>
