<svg width="80" height="23" viewBox="0 0 80 23" fill="none" xmlns="http://www.w3.org/2000/svg">
<g clip-path="url(#clip0_445_1647)">
<mask id="mask0_445_1647" style="mask-type:luminance" maskUnits="userSpaceOnUse" x="0" y="1" width="80" height="22">
<path d="M79.8921 1.62646H0.255859V22.6265H79.8921V1.62646Z" fill="white"/>
</mask>
<g mask="url(#mask0_445_1647)">
<path d="M9.19711 6.09901V22.19H6.71716V6.09901H0.255859V3.73699H15.6648V6.09901H9.19711ZM18.6134 22.19V3.73699H21.0933V22.19H18.6134ZM38.5933 16.9624C38.5933 20.0926 36.4991 22.1869 31.7463 22.1869H25.4572V3.73699H31.5678C36.0241 3.73699 38.0036 5.742 38.0036 8.63635C38.0036 10.5234 36.9103 11.9164 34.8415 12.7005C37.3119 13.2998 38.5933 14.8936 38.5933 16.9624ZM31.775 6.03845H27.9658V11.8239H31.3893C34.0446 11.8239 35.495 10.6446 35.495 8.84355C35.495 7.04254 34.1944 6.03845 31.775 6.03845ZM31.5965 14.0999H27.985V19.8854H31.9822C34.7268 19.8854 36.0879 18.91 36.0879 16.991C36.0879 14.8681 34.1944 14.0999 31.5965 14.0999ZM54.9522 7.11905C53.4763 6.07988 51.7136 5.52524 49.9062 5.53799C45.8898 5.53799 43.1803 8.3144 43.1803 12.8918C43.1803 17.4692 45.8898 20.389 49.954 20.389C51.8443 20.3572 53.6739 19.7228 55.1785 18.5817L55.5897 21.0935C53.8652 22.1072 51.8953 22.6363 49.8934 22.6299C44.4745 22.6299 40.6525 18.8813 40.6525 13.0065C40.6525 7.1318 44.5319 3.2971 49.903 3.2971C51.9526 3.28435 53.9672 3.81349 55.7459 4.83353L54.9522 7.11905ZM70.9508 4.59764C70.6735 4.43189 70.3898 4.27888 70.0965 4.145C67.6835 8.77023 63.3229 14.2688 57.5055 17.3991C57.8274 18.1322 58.2514 18.8144 58.7614 19.4328C63.7468 15.9933 68.3624 10.2812 70.9508 4.59764Z" fill="#3E8EDE"/>
<path d="M69.8757 4.03959C68.6103 3.50088 67.2459 3.22674 65.8689 3.23949C60.45 3.23949 56.6153 7.42483 56.6153 12.9362C56.6121 13.8192 56.7077 14.699 56.899 15.5596C62.4454 13.2996 67.3798 8.31418 69.8757 4.03959ZM71.1795 4.72492C68.3329 11.7249 64.8584 16.6753 60.434 20.9339C62.0438 22.0177 63.95 22.5819 65.888 22.5469C71.307 22.5469 75.1417 18.3328 75.1417 12.8183C75.1225 9.16846 73.6116 6.33148 71.1795 4.72492ZM75.1225 4.11609C75.0652 2.7996 76.0852 1.68713 77.4017 1.62975C78.7182 1.57237 79.8306 2.59241 79.888 3.90889C79.8912 3.97902 79.8912 4.04596 79.888 4.11609C79.9454 5.43257 78.9254 6.54505 77.6089 6.60243C76.2924 6.6598 75.1799 5.63977 75.1225 4.32328C75.1194 4.25316 75.1194 4.18303 75.1225 4.11609ZM79.6171 4.11609C79.6171 2.95261 78.6735 2.00589 77.5101 2.00589C76.3466 2.00589 75.3999 2.94942 75.3999 4.1129V4.11609C75.4031 5.27957 76.3498 6.2231 77.5164 6.21991C78.6799 6.21673 79.6235 5.27001 79.6203 4.10334V4.11609H79.6171ZM76.5793 2.85379H77.6758C78.2082 2.85379 78.6066 3.11518 78.6066 3.62201C78.6194 3.96946 78.3867 4.28184 78.0456 4.36154L78.6927 5.26363H78.1317L77.5483 4.40616H77.051V5.26363H76.5984V2.84104L76.5793 2.85379ZM77.6344 4.0619C77.8639 4.10334 78.0807 3.95033 78.1221 3.72082C78.1253 3.7017 78.1285 3.68257 78.1285 3.66345C78.1285 3.44031 77.9468 3.25543 77.7236 3.25543C77.6949 3.25543 77.6663 3.25862 77.6376 3.265H77.0542V4.04596H77.6408L77.6344 4.0619Z" fill="#3E8EDE"/>
</g>
</g>
<defs>
<clipPath id="clip0_445_1647">
<rect width="80" height="22" fill="white" transform="translate(0 0.697754)"/>
</clipPath>
</defs>
</svg>
